<?xml version="1.0" encoding="utf-8"?>
<!-- Svg Vector Icons : http://www.onlinewebfonts.com/icon -->
<!DOCTYPE svg PUBLIC "-//W3C//DTD SVG 1.1//EN" "http://www.w3.org/Graphics/SVG/1.1/DTD/svg11.dtd">
<svg version="1.1" xmlns="http://www.w3.org/2000/svg" xmlns:xlink="http://www.w3.org/1999/xlink" x="0px" y="0px" viewBox="0 0 256 256" enable-background="new 0 0 256 256" xml:space="preserve">
<metadata> Svg Vector Icons : http://www.onlinewebfonts.com/icon </metadata>
<g> <path fill="#62bd93" d="M231.5,130.5c0,54.2-43.9,98.1-98.1,98.1c-54.2,0-98.1-43.9-98.1-98.1c0-54.2,43.9-98.1,98.1-98.1 C187.6,32.4,231.5,76.3,231.5,130.5"/> <path fill="#62bd93" d="M208.2,222.3c-1.6,11.9-13.8,20.1-27.3,18.4c-13.5-1.8-23.3-12.8-21.7-24.8c1.5-11.9,13.8-20.1,27.3-18.4 C200.1,199.3,209.8,210.4,208.2,222.3"/> <path fill="#203846" d="M245.4,162c-2.2-17-17.2-24.2-25.1-25.6c-2-0.4-4.2,0.1-5.9,1.4c-1.7,1.2-2.8,3.1-3,5.2l-0.2,2 c-0.3,0.7-0.6,1.5-0.7,2.3l-6.6,49.5c-4.6-3.5-10.2-5.9-16.5-6.7c-17.7-2.3-33.8,8.9-35.9,24.9c-2.1,16,10.6,31,28.3,33.3 c17.7,2.3,33.8-8.9,35.9-24.9c0.1-0.6,0.1-1.3,0.2-1.9c0-0.2,0.1-0.5,0.1-0.7l6.8-50.7l14.2,1.8l0.1,0c4.2,0.5,8-2.4,8.5-6.5 C245.9,164.2,245.8,163.1,245.4,162L245.4,162z M181.9,233.2c-9.4-1.2-16.2-8.5-15.2-16.3c1-7.7,9.5-13,18.8-11.8 c9.4,1.2,16.2,8.5,15.2,16.2C199.7,229.1,191.2,234.4,181.9,233.2z M62.7,127.5c-4.2,0-7.6-3.4-7.6-7.6c0-36.8,29.9-66.7,66.7-66.7 c4.2,0,7.6,3.4,7.6,7.6s-3.4,7.6-7.6,7.6c-28.4,0-51.5,23.1-51.5,51.5C70.3,124.1,66.9,127.5,62.7,127.5z M128,161.8 c-20.1,0-36.4-16.3-36.4-36.4s16.3-36.4,36.4-36.4c20.1,0,36.4,16.3,36.4,36.4S148,161.8,128,161.8z M128,104.3 c-11.7,0-21.2,9.5-21.2,21.2c0,11.7,9.5,21.2,21.2,21.2c11.7,0,21.2-9.5,21.2-21.2C149.2,113.8,139.7,104.3,128,104.3z  M238.4,133.1c-4.2,0-7.6-3.4-7.6-7.6c0-56.7-46.1-102.8-102.8-102.8c-8.4,0-16.8,1-24.9,3c-4.1,1-8.2-1.5-9.2-5.5 c-1-4.1,1.5-8.2,5.5-9.2c9.3-2.3,18.9-3.5,28.5-3.5c65.1,0,118,52.9,118,118C246,129.7,242.6,133.1,238.4,133.1z M61,45.3 c-2.3,0-4.5-1-6-3c-2.6-3.3-1.9-8.1,1.4-10.6c6.1-4.6,12.6-8.7,19.4-12.1c3.8-1.9,8.3-0.3,10.2,3.4c1.9,3.8,0.3,8.3-3.4,10.2 c-6,2.9-11.6,6.5-16.9,10.5C64.3,44.8,62.6,45.3,61,45.3z"/> <path fill="#203846" d="M128,243.5c-65.1,0-118-52.9-118-118C10,96.7,20.5,69,39.5,47.4c2.8-3.1,7.6-3.4,10.7-0.7 c3.1,2.8,3.4,7.6,0.7,10.7c-16.6,18.8-25.7,42.9-25.7,68c0,56.7,46.1,102.8,102.8,102.8c4.2,0,7.6,3.4,7.6,7.6 C135.6,240.1,132.2,243.5,128,243.5L128,243.5z"/></g>
</svg>